<?xml version="1.0" encoding="utf-8"?>
<!-- Generator: Adobe Illustrator 16.0.0, SVG Export Plug-In . SVG Version: 6.00 Build 0)  -->
<!DOCTYPE svg PUBLIC "-//W3C//DTD SVG 1.1//EN" "http://www.w3.org/Graphics/SVG/1.1/DTD/svg11.dtd">
<svg version="1.1" id="Layer_1" xmlns="http://www.w3.org/2000/svg" xmlns:xlink="http://www.w3.org/1999/xlink" x="0px" y="0px"
	 width="510.674px" height="48.52px" viewBox="0 0 510.674 48.52" enable-background="new 0 0 510.674 48.52" xml:space="preserve">
<g>
	<path fill="#333333" d="M292.382,47.744h-2.771l-4.705-12.568h-19.013l-4.705,12.568h-2.707l15.403-40.282h3.352L292.382,47.744z
		 M275.495,9.911l-8.636,22.88h17.079L275.495,9.911z"/>
	<path fill="#333333" d="M300.825,18.225v19.639c0,2.627,0.558,4.641,1.676,6.04c1.116,1.399,2.878,2.1,5.284,2.1
		c1.676,0,3.384-0.441,5.124-1.324c1.74-0.882,3.426-2.142,5.06-3.779V18.225h2.643V47.55l-2.643,0.838v-5.221
		c-1.719,1.763-3.545,3.072-5.479,3.932s-3.609,1.289-5.027,1.289c-2.922,0-5.199-0.848-6.831-2.546
		c-1.634-1.697-2.449-4.178-2.449-7.444V18.225H300.825z"/>
	<path fill="#333333" d="M350.322,4.304l2.643-0.838v44.278h-2.643v-2.9c-0.902,0.86-2.127,1.666-3.674,2.417
		s-3.287,1.128-5.221,1.128c-1.891,0-3.652-0.354-5.284-1.063c-1.634-0.709-3.041-1.718-4.222-3.029
		c-1.183-1.31-2.106-2.889-2.771-4.737c-0.667-1.847-0.999-3.888-0.999-6.122c0-2.363,0.354-4.501,1.063-6.413
		s1.696-3.545,2.965-4.898c1.267-1.354,2.76-2.395,4.479-3.126c1.718-0.73,3.608-1.096,5.671-1.096c1.461,0,2.911,0.226,4.351,0.677
		s2.652,0.978,3.642,1.579V4.304z M346.636,20.963c-1.509-0.45-3.019-0.676-4.526-0.676c-1.683,0-3.212,0.311-4.592,0.933
		c-1.38,0.621-2.565,1.511-3.557,2.667c-0.991,1.159-1.768,2.54-2.327,4.147c-0.562,1.607-0.841,3.396-0.841,5.368
		c0,1.8,0.258,3.462,0.775,4.982c0.518,1.521,1.239,2.85,2.166,3.985c0.927,1.137,2.059,2.026,3.395,2.669
		c1.337,0.643,2.824,0.964,4.462,0.964s3.222-0.363,4.753-1.093c1.53-0.729,2.855-1.629,3.978-2.701V22.731
		C349.374,22.002,348.145,21.414,346.636,20.963z"/>
	<path fill="#333333" d="M365.791,9.138c0,0.516-0.173,0.989-0.516,1.418c-0.345,0.43-0.817,0.645-1.418,0.645
		c-0.603,0-1.063-0.214-1.386-0.645c-0.322-0.429-0.483-0.902-0.483-1.418c0-0.472,0.161-0.913,0.483-1.321
		c0.322-0.408,0.783-0.612,1.386-0.612c0.601,0,1.073,0.205,1.418,0.612C365.618,8.225,365.791,8.666,365.791,9.138z
		 M362.568,47.744V18.418l2.643-0.838v30.163H362.568z"/>
	<path fill="#333333" d="M375.587,32.988c0,1.856,0.247,3.583,0.745,5.18c0.496,1.598,1.22,2.979,2.17,4.146
		c0.951,1.166,2.105,2.072,3.468,2.72c1.36,0.647,2.883,0.971,4.567,0.971c1.684,0,3.218-0.241,4.601-0.727
		c1.382-0.486,2.613-1.081,3.693-1.787l0.58,2.385c-1.162,0.731-2.506,1.332-4.034,1.805s-3.196,0.709-5.004,0.709
		c-2.023,0-3.863-0.377-5.521-1.128s-3.066-1.805-4.229-3.158s-2.066-2.965-2.712-4.834s-0.968-3.92-0.968-6.154
		s0.322-4.297,0.967-6.188s1.557-3.534,2.739-4.931c1.181-1.396,2.578-2.481,4.189-3.255s3.383-1.16,5.316-1.16
		c1.461,0,2.814,0.237,4.061,0.709c1.246,0.474,2.33,1.15,3.255,2.03c0.924,0.881,1.644,1.945,2.159,3.19
		c0.516,1.247,0.773,2.665,0.773,4.254c0,0.73-0.065,1.525-0.194,2.385s-0.28,1.611-0.452,2.256l-20.171,0.13V32.988z
		 M393.568,30.149c0.129-0.735,0.193-1.471,0.193-2.206c0-2.334-0.682-4.248-2.045-5.74c-1.364-1.492-3.235-2.238-5.615-2.238
		c-2.77,0-5.063,0.94-6.882,2.822c-1.817,1.881-2.964,4.334-3.439,7.362H393.568z"/>
	<path fill="#333333" d="M424.31,47.744V28.105c0-2.626-0.559-4.64-1.676-6.04c-1.118-1.399-2.879-2.1-5.285-2.1
		c-1.676,0-3.384,0.442-5.123,1.324c-1.74,0.883-3.428,2.143-5.06,3.779v22.675h-2.643V18.418l2.643-0.838v5.156
		c1.718-1.761,3.545-3.062,5.479-3.899c1.933-0.838,3.608-1.257,5.026-1.257c2.922,0,5.198,0.849,6.832,2.546
		c1.633,1.698,2.449,4.179,2.449,7.444v20.173H424.31z"/>
	<path fill="#333333" d="M453.054,47.679c-1.461,0.473-2.965,0.709-4.512,0.709c-2.105,0-4.028-0.377-5.768-1.128
		c-1.74-0.751-3.242-1.805-4.505-3.158s-2.24-2.965-2.933-4.834s-1.038-3.92-1.038-6.154s0.335-4.297,1.006-6.188
		s1.628-3.534,2.868-4.931c1.24-1.396,2.721-2.481,4.44-3.255c1.718-0.773,3.587-1.16,5.606-1.16c1.762,0,3.395,0.216,4.898,0.645
		c1.504,0.43,2.836,1.031,3.996,1.805l-0.645,2.385c-1.074-0.706-2.311-1.291-3.706-1.754c-1.396-0.463-2.911-0.695-4.544-0.695
		c-1.676,0-3.201,0.324-4.575,0.972c-1.376,0.649-2.558,1.555-3.545,2.721c-0.989,1.166-1.763,2.537-2.32,4.113
		c-0.56,1.576-0.838,3.314-0.838,5.214s0.278,3.649,0.838,5.246c0.558,1.599,1.342,2.969,2.353,4.113
		c1.009,1.144,2.224,2.04,3.642,2.688c1.417,0.648,3.007,0.972,4.769,0.972c1.418,0,2.814-0.241,4.189-0.727
		c1.375-0.486,2.6-1.081,3.674-1.787l0.645,2.385C455.847,46.606,454.514,47.207,453.054,47.679z"/>
	<path fill="#333333" d="M465.301,32.988c0,1.856,0.247,3.583,0.745,5.18c0.496,1.598,1.22,2.979,2.17,4.146
		c0.951,1.166,2.105,2.072,3.468,2.72c1.36,0.647,2.883,0.971,4.567,0.971c1.684,0,3.218-0.241,4.601-0.727
		c1.382-0.486,2.613-1.081,3.693-1.787l0.58,2.385c-1.162,0.731-2.506,1.332-4.034,1.805s-3.196,0.709-5.004,0.709
		c-2.023,0-3.863-0.377-5.521-1.128s-3.066-1.805-4.229-3.158s-2.066-2.965-2.712-4.834s-0.968-3.92-0.968-6.154
		s0.322-4.297,0.967-6.188s1.557-3.534,2.739-4.931c1.181-1.396,2.578-2.481,4.189-3.255s3.383-1.16,5.316-1.16
		c1.461,0,2.814,0.237,4.061,0.709c1.246,0.474,2.33,1.15,3.255,2.03c0.924,0.881,1.644,1.945,2.159,3.19
		c0.516,1.247,0.773,2.665,0.773,4.254c0,0.73-0.065,1.525-0.194,2.385s-0.28,1.611-0.452,2.256l-20.171,0.13V32.988z
		 M483.282,30.149c0.129-0.735,0.193-1.471,0.193-2.206c0-2.334-0.682-4.248-2.045-5.74c-1.364-1.492-3.235-2.238-5.615-2.238
		c-2.77,0-5.063,0.94-6.882,2.822c-1.817,1.881-2.964,4.334-3.439,7.362H483.282z"/>
	<path fill="#333333" d="M510.674,40.074c0,1.289-0.269,2.449-0.806,3.48s-1.257,1.901-2.159,2.61s-1.955,1.257-3.158,1.644
		s-2.492,0.58-3.866,0.58c-1.676,0-3.299-0.244-4.866-0.729c-1.569-0.485-2.933-1.103-4.093-1.85l0.838-2.449
		c1.245,0.816,2.556,1.461,3.932,1.934c1.374,0.474,2.813,0.709,4.318,0.709c0.944,0,1.857-0.128,2.738-0.386
		c0.881-0.257,1.676-0.621,2.385-1.093c0.709-0.471,1.278-1.062,1.708-1.769c0.43-0.706,0.645-1.532,0.645-2.476
		c0-1.072-0.226-1.95-0.677-2.637c-0.451-0.686-1.042-1.275-1.772-1.769s-1.568-0.9-2.514-1.222s-1.912-0.653-2.899-0.997
		c-0.989-0.342-1.978-0.728-2.965-1.156c-0.989-0.43-1.881-0.954-2.675-1.576c-0.796-0.622-1.44-1.372-1.934-2.251
		c-0.494-0.878-0.741-1.919-0.741-3.119c0-1.328,0.247-2.485,0.741-3.472c0.493-0.986,1.16-1.811,1.998-2.475
		s1.814-1.168,2.933-1.512c1.116-0.342,2.32-0.515,3.609-0.515c1.546,0,3.039,0.205,4.479,0.612
		c1.439,0.409,2.739,0.914,3.899,1.515l-0.902,2.385c-1.246-0.687-2.503-1.235-3.771-1.644c-1.268-0.408-2.589-0.612-3.963-0.612
		c-2.021,0-3.632,0.495-4.834,1.482c-1.204,0.989-1.805,2.299-1.805,3.932c0,0.945,0.226,1.751,0.677,2.417s1.031,1.235,1.74,1.708
		s1.535,0.87,2.481,1.192c0.944,0.322,1.89,0.655,2.836,0.999c1.03,0.344,2.04,0.72,3.028,1.128s1.891,0.935,2.707,1.579
		c0.816,0.644,1.472,1.429,1.966,2.352C510.427,37.55,510.674,38.7,510.674,40.074z"/>
</g>
<path fill="#3462A4" d="M126.448,23.58c-2.029,0-3.49,0.664-4.973,1.339v15.31c1.422,0.14,2.231,0.14,3.582,0.14
	c4.868,0,5.534-2.229,5.534-5.336v-7.314C130.593,25.423,129.831,23.58,126.448,23.58 M94.12,22.744
	c-3.378,0-4.146,1.852-4.146,4.145v1.286h8.292v-1.286C98.265,24.596,97.494,22.744,94.12,22.744 M31.494,38.682
	c0,1.812,0.856,2.754,2.748,2.754c2.03,0,3.23-0.66,4.712-1.34v-3.63h-4.438C32.416,36.466,31.494,36.855,31.494,38.682
	 M157.897,23.58c-3.383,0-4.556,1.843-4.556,4.136v8.38c0,2.301,1.173,4.147,4.556,4.147c3.373,0,4.555-1.848,4.555-4.147v-8.38
	C162.452,25.423,161.271,23.58,157.897,23.58 M14.914,48.072H4.971V24.035H0V15.75h4.972v-4.973C4.971,4.02,7.776,0,15.746,0h6.637
	v8.285h-4.146c-3.104,0-3.311,1.158-3.311,3.318l-0.013,4.146h7.518l-0.881,8.285h-6.637V48.072z M48.902,48.134h-8.288
	l-0.357-2.094c-3.785,2.094-7.164,2.435-9.391,2.435c-6.08,0-9.315-4.056-9.315-9.664c0-6.615,3.775-8.978,10.529-8.978h6.874v-1.43
	c0-3.379-0.388-4.369-5.588-4.369h-8.504l0.832-8.285h9.294c11.412,0,13.914,3.602,13.914,12.721V48.134z M77.087,24.643
	c-5.157-0.883-6.639-1.078-9.12-1.078c-4.458,0-5.805,0.984-5.805,4.763v7.151c0,3.78,1.347,4.767,5.805,4.767
	c2.481,0,3.963-0.195,9.12-1.082v8.078c-4.519,1.014-7.461,1.278-9.947,1.278c-10.679,0-14.921-5.606-14.921-13.709v-5.804
	c0-8.106,4.242-13.724,14.921-13.724c2.486,0,5.43,0.269,9.947,1.282V24.643z M108.208,34.811H89.973v0.668
	c0,3.78,1.348,4.767,5.804,4.767c4.008,0,6.452-0.195,11.6-1.082v8.078c-4.964,1.014-7.55,1.278-12.424,1.278
	c-10.678,0-14.924-5.606-14.924-13.709v-6.636c0-7.085,3.152-12.892,14.092-12.892c10.942,0,14.088,5.738,14.088,12.892
	L108.208,34.811L108.208,34.811z M140.536,34.962c0,7.83-2.24,13.541-15.813,13.541c-4.898,0-7.777-0.432-13.188-1.264V2.487
	l9.941-1.655v15.653c2.147-0.798,4.93-1.202,7.461-1.202c9.944,0,11.6,4.453,11.6,11.605V34.962z M172.405,35.134
	c0,6.755-2.793,13.306-14.475,13.306c-11.689,0-14.533-6.551-14.533-13.306v-6.52c0-6.757,2.844-13.309,14.533-13.309
	c11.682,0,14.475,6.552,14.475,13.309V35.134z M204.25,35.134c0,6.755-2.795,13.306-14.473,13.306
	c-11.69,0-14.536-6.551-14.536-13.306v-6.52c0-6.757,2.846-13.309,14.536-13.309c11.678,0,14.473,6.552,14.473,13.309V35.134z
	 M236.935,48.072h-10.779l-9.113-15.191v15.191H207.1V2.487l9.942-1.655v29.345l9.113-14.427h10.779l-9.951,15.744L236.935,48.072z
	 M189.742,23.58c-3.377,0-4.549,1.843-4.549,4.136v8.38c0,2.301,1.172,4.147,4.549,4.147c3.373,0,4.566-1.848,4.566-4.147v-8.38
	C194.308,25.423,193.115,23.58,189.742,23.58"/>
</svg>
